<?xml version="1.0" standalone="no"?>
<!DOCTYPE svg PUBLIC "-//W3C//DTD SVG 20010904//EN"
 "http://www.w3.org/TR/2001/REC-SVG-20010904/DTD/svg10.dtd">
<svg version="1.0" xmlns="http://www.w3.org/2000/svg"
 width="180.000000pt" height="180.000000pt" viewBox="0 0 180.000000 180.000000"
 preserveAspectRatio="xMidYMid meet">
<metadata>
Created by potrace 1.14, written by Peter Selinger 2001-2017
</metadata>
<g transform="translate(0.000000,180.000000) scale(0.100000,-0.100000)"
fill="#000000" stroke="none">
<path d="M730 1765 c-265 -54 -497 -231 -619 -472 -59 -118 -83 -223 -87 -373
-3 -117 0 -148 21 -229 83 -318 308 -549 627 -642 85 -24 292 -35 373 -18 28
6 60 12 73 15 31 6 141 48 183 69 71 36 166 107 225 168 124 127 205 280 239
451 20 102 13 299 -15 396 -88 309 -321 539 -636 626 -78 21 -298 27 -384 9z"/>
</g>
</svg>
